<svg version="1.1" id="Layer_1" xmlns="http://www.w3.org/2000/svg" xmlns:xlink="http://www.w3.org/1999/xlink" x="0px" y="0px"
	 width="100%" viewBox="0 0 986 592" enable-background="new 0 0 986 592" xml:space="preserve">

<path fill="#ffffff" opacity="1.000000" stroke="none" 
	d="
M74.128212,485.012268 
	C84.346176,484.608154 94.244568,485.039337 103.828331,483.505127 
	C113.124786,482.016876 121.030540,476.456696 125.722336,468.205078 
	C131.350220,458.307068 135.957352,447.806183 140.566711,437.372070 
	C141.404434,435.475800 140.594650,432.470337 139.763031,430.273041 
	C107.376518,344.701447 74.898773,259.164368 42.435749,173.621735 
	C41.907574,172.229965 41.413162,170.825378 40.561039,168.489319 
	C42.519520,168.489319 44.047531,168.489334 45.575546,168.489334 
	C67.072823,168.489334 88.571587,168.619125 110.066078,168.374634 
	C114.136330,168.328354 115.745285,169.569595 117.014595,173.364700 
	C137.242004,233.842590 157.635651,294.264893 177.994278,354.698883 
	C178.099442,355.011017 178.246307,355.309113 178.612305,356.184357 
	C179.441452,354.215149 180.217407,352.681549 180.748047,351.067322 
	C200.196487,291.904999 219.675186,232.752411 238.937042,173.529327 
	C240.286240,169.381042 242.183243,168.355728 246.268066,168.396210 
	C266.763458,168.599335 287.261963,168.489334 307.759369,168.489334 
	C309.392334,168.489334 311.025299,168.489319 313.411621,168.489319 
	C311.961426,172.520569 310.713379,176.043518 309.428741,179.553070 
	C274.267365,275.611359 239.156097,371.688080 203.883621,467.705597 
	C198.146149,483.323914 191.412674,498.523895 180.911148,511.718567 
	C167.469162,528.607788 149.107162,536.429504 128.522446,539.818542 
	C107.923416,543.210022 87.350739,542.251038 66.947739,537.997314 
	C65.610847,537.718567 63.694534,536.064636 63.546059,534.864990 
	C61.424126,517.719666 59.560371,500.542480 57.568062,482.781464 
	C63.283222,483.564484 68.477104,484.276093 74.128212,485.012268 
z"/>
<path fill="#ffffff" opacity="1.000000" stroke="none" 
	d="
M867.469849,180.517731 
	C909.858276,206.865891 930.921570,245.169281 932.869812,294.226105 
	C934.093506,325.040131 928.030212,354.256836 910.460754,380.131805 
	C884.078857,418.985046 847.053650,438.739288 800.154114,439.936188 
	C774.222900,440.597931 749.633057,435.013336 726.466736,423.355469 
	C694.176941,407.106445 674.011108,380.942841 665.087952,346.269012 
	C655.212158,307.893707 656.268311,270.190308 674.152588,233.907288 
	C690.536255,200.668640 716.596985,178.838043 752.080933,168.802185 
	C789.243347,158.291580 825.773499,160.136887 861.011353,177.025085 
	C863.107239,178.029541 865.119080,179.209290 867.469849,180.517731 
M731.109558,295.671783 
	C730.668457,311.589691 731.722717,327.376312 738.006653,342.200623 
	C748.543396,367.057495 766.995056,381.423187 794.488037,382.722260 
	C818.541809,383.858856 841.681763,369.859406 851.741699,346.622284 
	C864.252930,317.722778 864.911011,287.695892 852.982422,258.707153 
	C834.023621,212.633698 775.830505,205.745255 746.154358,245.385254 
	C735.259888,259.937592 732.125977,277.049774 731.109558,295.671783 
z"/>
<path fill="#ffffff" opacity="1.000000" stroke="none" 
	d="
M420.250488,439.850708 
	C394.803436,438.191925 371.302856,431.492371 349.826508,418.560760 
	C321.510834,401.510986 304.368988,376.122528 296.616760,344.363647 
	C287.384705,306.542297 288.631073,269.497101 306.197083,233.890381 
	C322.597015,200.647354 348.673706,178.825974 384.168915,168.785049 
	C420.811096,158.419662 457.292389,159.334763 491.691864,176.592117 
	C532.191223,196.909637 555.986938,230.395737 563.023560,275.256409 
	C567.740479,305.328003 565.622375,335.014496 552.095398,362.606934 
	C526.888672,414.023895 484.862610,439.404785 427.721649,439.987274 
	C425.389679,440.011047 423.056366,439.907257 420.250488,439.850708 
M369.911621,260.505493 
	C360.535248,287.736603 359.773987,315.259949 370.176819,342.097870 
	C379.928986,367.257111 398.999329,381.413879 426.507690,382.720856 
	C450.590729,383.865112 473.580414,369.843872 483.803680,346.620483 
	C495.924835,319.085968 496.073242,290.505829 486.572205,262.316620 
	C476.176086,231.471970 447.720947,215.137115 415.683685,221.094467 
	C393.453217,225.228226 379.069946,239.528091 369.911621,260.505493 
z"/>
<path fill="#ffffff" opacity="1.000000" stroke="none" 
	d="
M625.998779,67.493332 
	C632.143921,67.493362 637.789429,67.493362 643.785645,67.493362 
	C643.785645,189.616150 643.785645,311.452637 643.785645,433.644653 
	C620.864197,433.644653 597.665894,433.644653 574.224976,433.644653 
	C574.224976,311.821106 574.224976,189.957764 574.224976,67.493309 
	C591.302002,67.493309 608.400635,67.493309 625.998779,67.493332 
z"/>
</svg>